<svg xmlns="http://www.w3.org/2000/svg" width="500" height="470" viewBox="0 0 500 470">
  <g fill="none" fill-rule="evenodd">
    <path fill="#0D5470" d="M405.867 374.2389L423.696 374.2389C424.998 374.2389 425.913 374.0309 426.444 373.6109 426.972 373.1929 427.237 372.3769 427.237 371.1599 427.237 368.4999 426.199 366.3319 424.123 364.6589 422.047 362.9859 419.502 362.1499 416.491 362.1499 413.64 362.1499 411.157 362.9679 409.042 364.6009 406.925 366.2359 405.867 368.3849 405.867 371.0459L405.867 374.2389zM390.113 384.4969L390.113 374.1169C390.113 367.4419 392.718 361.7039 397.93 356.8979 403.138 352.0949 409.448 349.6929 416.857 349.6929 423.776 349.6929 429.7 351.8819 434.626 356.2579 439.552 360.6329 442.014 366.1319 442.014 372.7569 442.014 375.1759 441.709 377.1699 441.098 378.7419 440.488 380.3149 439.552 381.4229 438.29 382.0689 437.027 382.7139 435.867 383.1169 434.809 383.2769 433.75 383.4409 432.366 383.5199 430.657 383.5199L405.867 383.5199 405.867 385.3509C405.867 388.8539 407.168 391.6839 409.774 393.8399 412.379 395.9979 415.839 397.0759 420.154 397.0759 423.249 397.0759 426.302 396.3019 429.313 394.7549 432.325 393.2099 434.278 392.4339 435.176 392.4339 436.886 392.4339 438.308 393.2289 439.45 394.8159 440.59 396.4049 441.16 397.9299 441.16 399.3959 441.16 401.6759 439.103 403.9349 434.993 406.1739 430.88 408.4129 425.772 409.5319 419.667 409.5319 410.954 409.5319 403.851 407.2329 398.355 402.6329 392.861 398.0329 390.113 391.9879 390.113 384.4969zM59.7703 340.8102C59.7703 339.1002 60.8693 337.6162 63.0673 336.3522 65.2663 335.0902 67.5433 334.4592 69.9063 334.4592 72.8363 334.4592 74.5863 335.5192 75.1573 337.6342L90.1013 388.6442 100.4803 346.1462C101.2143 343.2152 103.8193 341.7492 108.2973 341.7492 112.6943 341.7492 115.2583 343.2152 115.9903 346.1462L126.3703 388.6442 141.0043 337.6342C141.5733 335.5182 143.3253 334.4592 146.2563 334.4592 148.6163 334.4592 150.8953 335.0902 153.0943 336.3522 155.2923 337.6162 156.3923 339.1002 156.3923 340.8092 156.3923 341.2982 156.3093 341.7872 156.1473 342.2762L136.6303 403.9092C135.4093 407.4932 131.9473 409.2832 126.2493 409.2832 123.8073 409.2832 121.6083 408.8132 119.6543 407.8792 117.7013 406.9442 116.5193 405.6202 116.1123 403.9092L108.2973 370.9362 100.3603 403.9092C99.9523 405.6202 98.7713 406.9442 96.8183 407.8792 94.8643 408.8132 92.6663 409.2832 90.2233 409.2832 87.6993 409.2832 85.4613 408.8132 83.5073 407.8792 81.5533 406.9442 80.3323 405.6202 79.8423 403.9092L60.0153 342.2762C59.8493 341.7872 59.7703 341.2992 59.7703 340.8102zM170.6307 374.3561L188.4607 374.3561C189.7617 374.3561 190.6777 374.1481 191.2077 373.7281 191.7367 373.3101 192.0007 372.4941 192.0007 371.2771 192.0007 368.6181 190.9627 366.4491 188.8877 364.7761 186.8117 363.1031 184.2657 362.2671 181.2557 362.2671 178.4037 362.2671 175.9217 363.0851 173.8057 364.7181 171.6887 366.3531 170.6307 368.5021 170.6307 371.1631L170.6307 374.3561zM154.8767 384.6141L154.8767 374.2341C154.8767 367.5591 157.4817 361.8211 162.6937 357.0151 167.9017 352.2121 174.2127 349.8101 181.6207 349.8101 188.5397 349.8101 194.4637 351.9991 199.3897 356.3751 204.3157 360.7501 206.7777 366.2491 206.7777 372.8741 206.7777 375.2931 206.4727 377.2871 205.8617 378.8591 205.2527 380.4321 204.3157 381.5401 203.0547 382.1861 201.7917 382.8311 200.6307 383.2341 199.5727 383.3941 198.5137 383.5581 197.1307 383.6371 195.4207 383.6371L170.6307 383.6371 170.6307 385.4691C170.6307 388.9711 171.9317 391.8011 174.5387 393.9571 177.1437 396.1151 180.6027 397.1931 184.9187 397.1931 188.0127 397.1931 191.0657 396.4191 194.0767 394.8731 197.0887 393.3271 199.0427 392.5511 199.9407 392.5511 201.6497 392.5511 203.0717 393.3461 204.2147 394.9331 205.3537 396.5221 205.9237 398.0471 205.9237 399.5131 205.9237 401.7931 203.8677 404.0521 199.7567 406.2911 195.6447 408.5301 190.5367 409.6491 184.4307 409.6491 175.7187 409.6491 168.6157 407.3501 163.1197 402.7501 157.6257 398.1501 154.8767 392.1051 154.8767 384.6141zM233.2654 340.9371C233.2654 339.0641 234.3434 337.4991 236.5014 336.2351 238.6574 334.9731 240.9164 334.3421 243.2794 334.3421 246.2904 334.3421 248.0824 335.4011 248.6534 337.5171L262.9014 388.5271 277.3084 337.5171C277.8764 335.4011 279.6684 334.3421 282.6814 334.3411 284.9594 334.3411 287.2014 334.9951 289.3974 336.2951 291.5964 337.6001 292.6954 339.1471 292.6954 340.9371 292.6954 341.1001 292.6144 341.5071 292.4524 342.1591L273.1594 403.7911C272.6714 405.5021 271.4504 406.8271 269.4954 407.7621 267.5424 408.6961 265.3444 409.1661 262.9014 409.1661 257.2834 409.1661 253.8654 407.3751 252.6434 403.7911L233.5104 342.1591C233.3444 341.5071 233.2654 341.1011 233.2654 340.9371zM308.366 384.4605C308.366 387.3675 309.424 389.9545 311.542 392.2175 313.657 394.4815 316.181 395.6095 319.113 395.6095 321.962 395.6095 324.466 394.4815 326.623 392.2175 328.78 389.9545 329.859 387.3675 329.859 384.4605L329.859 374.5225C329.859 371.7755 328.779 369.2725 326.623 367.0095 324.466 364.7465 321.962 363.6135 319.113 363.6135 316.181 363.6135 313.657 364.7265 311.542 366.9475 309.424 369.1695 308.366 371.6935 308.366 374.5225L308.366 384.4605zM292.612 384.4965L292.612 374.4835C292.612 367.8095 295.218 362.0075 300.429 357.0815 305.637 352.1555 311.865 349.6925 319.113 349.6925 326.196 349.6925 332.382 352.1345 337.676 357.0215 342.967 361.9045 345.613 367.7265 345.613 374.4835L345.613 384.4965C345.613 391.0925 342.967 396.9135 337.676 401.9605 332.382 407.0095 326.196 409.5315 319.113 409.5315 312.029 409.5315 305.843 407.0095 300.552 401.9605 295.257 396.9135 292.612 391.0925 292.612 384.4965zM352.117 388.8805L352.117 338.5645C352.117 337.1965 352.93 336.0495 354.56 335.1245 356.188 334.1995 357.98 333.7355 359.933 333.7355 362.05 333.7355 363.902 334.1855 365.489 335.0865 367.078 335.9865 367.871 337.1045 367.871 338.4355L367.871 350.4255 382.281 350.4255C383.503 350.4255 384.479 351.0455 385.212 352.2815 385.946 353.5185 386.311 354.9765 386.311 356.6535 386.311 358.3325 385.946 359.7905 385.212 361.0265 384.479 362.2635 383.503 362.8815 382.281 362.8815L367.871 362.8815 367.871 388.3485C367.871 390.5965 368.379 392.1855 369.398 393.1165 370.415 394.0475 372.185 394.5105 374.709 394.5105L379.472 394.5105C381.589 394.5105 383.236 395.1925 384.419 396.5555 385.596 397.9165 386.188 399.5345 386.188 401.4095 386.188 403.3665 385.596 405.0265 384.419 406.3905 383.236 407.7515 381.589 408.4335 379.472 408.4335L374.709 408.4335C359.648 408.4335 352.117 401.9175 352.117 388.8805zM377.8348 103.2902L326.1888 192.7452 301.1528 149.3832 330.9418 97.7862C330.9428 97.7862 330.9428 97.7832 330.9428 97.7832 331.8988 96.1272 333.6898 95.0982 335.6138 95.0982L373.1058 95.0982C375.9508 95.0982 377.3598 97.0072 377.8348 97.8292 378.3088 98.6502 379.2578 100.8262 377.8348 103.2902zM293.2718 249.7612C291.8468 252.2252 289.4878 252.4922 288.5398 252.4922 287.5918 252.4922 285.2328 252.2252 283.8108 249.7612L194.5158 95.0982 241.4548 95.0982C243.3858 95.0982 245.1838 96.1322 246.1468 97.7992L313.5758 214.5912 293.2718 249.7612zM217.9728 249.7612C216.5518 252.2252 214.1918 252.4922 213.2438 252.4922 212.2968 252.4922 209.9378 252.2252 208.5138 249.7612L123.9498 103.2902C122.5268 100.8262 123.4748 98.6502 123.9498 97.8292 124.4238 97.0072 125.8338 95.0982 128.6788 95.0982L166.1368 95.0982C168.0808 95.0982 169.8928 96.1432 170.8668 97.8292L238.2788 214.5912 217.9728 249.7612zM396.7548 86.9052C391.8178 78.3552 382.9788 73.2512 373.1058 73.2512L335.6138 73.2512C325.9068 73.2512 316.8678 78.4682 312.0218 86.8652L288.5408 127.5362 265.0648 86.8762C260.2148 78.4732 251.1678 73.2512 241.4548 73.2512L128.6788 73.2512C118.8068 73.2512 109.9658 78.3552 105.0298 86.9052 100.0938 95.4552 100.0938 105.6642 105.0298 114.2132L189.5958 260.6852C194.5308 269.2342 203.3728 274.3382 213.2458 274.3382 223.1168 274.3382 231.9568 269.2342 236.8928 260.6852L250.8918 236.4372 264.8918 260.6852C269.8268 269.2342 278.6678 274.3382 288.5398 274.3382 298.4128 274.3382 307.2528 269.2342 312.1888 260.6852 312.1888 260.6852 335.6468 220.0582 335.6488 220.0532L396.7538 114.2132C401.6908 105.6642 401.6908 95.4552 396.7548 86.9052z"/>
  </g>
</svg>
